<svg xmlns="http://www.w3.org/2000/svg" xmlns:svg="http://www.w3.org/2000/svg" id="svg8" width="300mm" height="300mm" version="1.1" viewBox="0 0 300 300"><defs id="defs2"><marker style="overflow:visible" id="TriangleOutL" orient="auto" refX="0" refY="0"><path transform="scale(0.8)" style="fill:#000;fill-opacity:1;fill-rule:evenodd;stroke:#000;stroke-width:1pt;stroke-opacity:1" id="path1437" d="M 5.77,0 -2.88,5 V -5 Z"/></marker><marker style="overflow:visible" id="Arrow2Lend" orient="auto" refX="0" refY="0"><path id="path1316" d="M 8.7185878,4.0337352 -2.2072895,0.01601326 8.7185884,-4.0017078 c -1.7454984,2.3720609 -1.7354408,5.6174519 -6e-7,8.035443 z" transform="matrix(-1.1,0,0,-1.1,-1.1,0)" style="fill:#000;fill-opacity:1;fill-rule:evenodd;stroke:#000;stroke-width:.625;stroke-linejoin:round;stroke-opacity:1"/></marker><marker style="overflow:visible" id="Arrow1Lend" orient="auto" refX="0" refY="0"><path transform="matrix(-0.8,0,0,-0.8,-10,0)" style="fill:#000;fill-opacity:1;fill-rule:evenodd;stroke:#000;stroke-width:1pt;stroke-opacity:1" id="path1298" d="M 0,0 5,-5 -12.5,0 5,5 Z"/></marker><marker style="overflow:visible" id="Arrow1Lstart" orient="auto" refX="0" refY="0"><path transform="matrix(0.8,0,0,0.8,10,0)" style="fill:#000;fill-opacity:1;fill-rule:evenodd;stroke:#000;stroke-width:1pt;stroke-opacity:1" id="path1295" d="M 0,0 5,-5 -12.5,0 5,5 Z"/></marker><marker style="overflow:visible" id="Arrow2Lend-4" orient="auto" refX="0" refY="0"><path id="path1316-0" d="M 8.7185878,4.0337352 -2.2072895,0.01601326 8.7185884,-4.0017078 c -1.7454984,2.3720609 -1.7354408,5.6174519 -6e-7,8.035443 z" transform="matrix(-1.1,0,0,-1.1,-1.1,0)" style="fill:#000;fill-opacity:1;fill-rule:evenodd;stroke:#000;stroke-width:.625;stroke-linejoin:round;stroke-opacity:1"/></marker><marker style="overflow:visible" id="Arrow2Lend-4-1" orient="auto" refX="0" refY="0"><path id="path1316-0-9" d="M 8.7185878,4.0337352 -2.2072895,0.01601326 8.7185884,-4.0017078 c -1.7454984,2.3720609 -1.7354408,5.6174519 -6e-7,8.035443 z" transform="matrix(-1.1,0,0,-1.1,-1.1,0)" style="fill:#000;fill-opacity:1;fill-rule:evenodd;stroke:#000;stroke-width:.625;stroke-linejoin:round;stroke-opacity:1"/></marker></defs><metadata id="metadata5"/><g id="layer1"><rect style="fill:#faffff;fill-opacity:1;stroke:#000;stroke-width:.4;stroke-linecap:round;stroke-linejoin:round;stroke-miterlimit:4.3;stroke-dasharray:none;stroke-opacity:1" id="rect2381" width="607.786" height="551.089" x="-159.506" y="-81.643"/><rect style="fill:#ffffe6;fill-opacity:1;stroke:#000;stroke-width:.475649;stroke-linecap:round;stroke-linejoin:round;stroke-miterlimit:4.3;stroke-dasharray:none;stroke-opacity:1" id="rect1220-4" width="76.202" height="29.352" x="202.963" y="240.381"/><rect style="fill:#b5ffba;fill-opacity:1;stroke:#000;stroke-width:.4;stroke-linecap:round;stroke-linejoin:round;stroke-miterlimit:4.3;stroke-dasharray:none;stroke-opacity:1" id="rect869" width="81.454" height="37.231" x="14.892" y="132.123" rx="8" ry="8"/><text xml:space="preserve" style="font-style:normal;font-weight:400;font-size:7.05556px;line-height:1.25;font-family:sans-serif;text-align:center;letter-spacing:0;text-anchor:middle;fill:#000;fill-opacity:1;stroke:none;stroke-width:.264583" id="text873" x="55.387" y="148.748"><tspan id="tspan871" x="55.387" y="148.748" style="font-style:normal;font-variant:normal;font-weight:400;font-stretch:normal;font-size:7.05556px;font-family:Roboto;-inkscape-font-specification:Roboto;text-align:center;text-anchor:middle;stroke-width:.264583">IKEA E1743</tspan><tspan x="55.387" y="157.7" style="font-style:normal;font-variant:normal;font-weight:400;font-stretch:normal;font-size:7.05556px;font-family:Roboto;-inkscape-font-specification:Roboto;text-align:center;text-anchor:middle;stroke-width:.264583" id="tspan1149">Controller</tspan></text><g style="fill:currentColor" id="g1099" transform="matrix(0.79309876,0,0,0.79309876,17.651348,134.55209)"><path id="path1085" d="M 10,2 A 2,2 0 0 1 8.5,3.937 V 9.024 C 9.363,9.107 10,9.401 10,9.75 10,10.164 9.105,10.5 8,10.5 6.895,10.5 6,10.164 6,9.75 6,9.4 6.637,9.107 7.5,9.024 V 3.937 A 2,2 0 1 1 10,2 Z"/><path id="path1087" d="m 0,9.665 v 1.717 a 1,1 0 0 0 0.553,0.894 l 6.553,3.277 a 2,2 0 0 0 1.788,0 l 6.553,-3.277 A 1,1 0 0 0 16,11.382 V 9.665 c 0,-0.1 -0.06,-0.19 -0.152,-0.23 L 9.5,6.715 v 0.993 l 5.227,2.178 a 0.125,0.125 0 0 1 10e-4,0.23 l -5.94,2.546 a 2,2 0 0 1 -1.576,0 L 1.272,10.116 A 0.125,0.125 0 0 1 1.273,9.886 L 6.5,7.708 6.487,6.72 0.152,9.435 A 0.25,0.25 0 0 0 0,9.665 Z"/></g><rect style="fill:#c9f3ff;fill-opacity:1;stroke:#000;stroke-width:.4;stroke-linecap:round;stroke-linejoin:round;stroke-miterlimit:4.3;stroke-dasharray:none;stroke-opacity:1" id="rect869-0" width="81.454" height="37.231" x="200.338" y="132.123" rx="8" ry="8"/><text xml:space="preserve" style="font-style:normal;font-weight:400;font-size:7.05556px;line-height:1.25;font-family:sans-serif;text-align:center;letter-spacing:0;text-anchor:middle;fill:#000;fill-opacity:1;stroke:none;stroke-width:.264583" id="text873-4" x="240.822" y="148.873"><tspan x="240.822" y="148.873" style="font-style:normal;font-variant:normal;font-weight:400;font-stretch:normal;font-size:7.05556px;font-family:Roboto;-inkscape-font-specification:Roboto;text-align:center;text-anchor:middle;stroke-width:.264583" id="tspan1101-2">Media Player</tspan><tspan x="240.822" y="157.825" style="font-style:normal;font-variant:normal;font-weight:400;font-stretch:normal;font-size:7.05556px;font-family:Roboto;-inkscape-font-specification:Roboto;text-align:center;text-anchor:middle;stroke-width:.264583" id="tspan1157">Hook</tspan></text><g style="fill:currentColor" id="g1216" transform="matrix(0.94110932,0,0,0.94110932,203.25518,134.0707)"><path id="path1205" d="M 6,0 A 0.5,0.5 0 0 1 6.5,0.5 V 3 h 3 V 0.5 a 0.5,0.5 0 0 1 1,0 V 3 h 1 A 0.5,0.5 0 0 1 12,3.5 v 3 A 3.5,3.5 0 0 1 8.5,10 c -0.002,0.434 -0.01,0.845 -0.04,1.22 -0.041,0.514 -0.126,1.003 -0.317,1.424 a 2.083,2.083 0 0 1 -0.97,1.028 C 6.725,13.9 6.169,14 5.5,14 4.502,14 3.89,14.33 3.526,14.718 A 1.922,1.922 0 0 0 3,16 H 2 C 2,15.384 2.232,14.633 2.797,14.032 3.374,13.42 4.261,13 5.5,13 c 0.581,0 0.962,-0.088 1.218,-0.219 0.241,-0.123 0.4,-0.3 0.514,-0.55 0.121,-0.266 0.193,-0.621 0.23,-1.09 C 7.489,10.801 7.497,10.423 7.499,10 A 3.5,3.5 0 0 1 4,6.5 v -3 A 0.5,0.5 0 0 1 4.5,3 h 1 V 0.5 A 0.5,0.5 0 0 1 6,0 Z"/></g><rect style="fill:#ffffe6;fill-opacity:1;stroke:#000;stroke-width:.475649;stroke-linecap:round;stroke-linejoin:round;stroke-miterlimit:4.3;stroke-dasharray:none;stroke-opacity:1" id="rect1220" width="76.202" height="29.352" x="15.155" y="31.173"/><text xml:space="preserve" style="font-style:normal;font-weight:400;font-size:7.05556px;line-height:1.25;font-family:sans-serif;text-align:center;letter-spacing:0;text-anchor:middle;fill:#000;fill-opacity:1;stroke:none;stroke-width:.264583" id="text873-4-0" x="240.822" y="252.474"><tspan x="240.822" y="252.474" style="font-style:normal;font-variant:normal;font-weight:400;font-stretch:normal;font-size:7.05556px;font-family:Roboto;-inkscape-font-specification:Roboto;text-align:center;text-anchor:middle;stroke-width:.264583" id="tspan1101-2-2">Media Player</tspan><tspan x="240.822" y="261.426" style="font-style:normal;font-variant:normal;font-weight:400;font-stretch:normal;font-size:7.05556px;font-family:Roboto;-inkscape-font-specification:Roboto;text-align:center;text-anchor:middle;stroke-width:.264583" id="tspan1157-8">Entity</tspan></text><text xml:space="preserve" style="font-style:normal;font-weight:400;font-size:7.05556px;line-height:1.25;font-family:sans-serif;text-align:center;letter-spacing:0;text-anchor:middle;fill:#000;fill-opacity:1;stroke:none;stroke-width:.264583" id="text873-4-3" x="53.006" y="43.141"><tspan x="53.006" y="43.141" style="font-style:normal;font-variant:normal;font-weight:400;font-stretch:normal;font-size:7.05556px;font-family:Roboto;-inkscape-font-specification:Roboto;text-align:center;text-anchor:middle;stroke-width:.264583" id="tspan1157-0">IKEA E1743</tspan><tspan x="53.006" y="52.092" style="font-style:normal;font-variant:normal;font-weight:400;font-stretch:normal;font-size:7.05556px;font-family:Roboto;-inkscape-font-specification:Roboto;text-align:center;text-anchor:middle;stroke-width:.264583" id="tspan1287">Device / Entity</tspan></text><path style="fill:none;stroke:#000;stroke-width:.316673px;stroke-linecap:butt;stroke-linejoin:miter;stroke-opacity:1;marker-end:url(#Arrow2Lend)" id="path1293" d="m 100.36842,150.74196 h 94.09701"/><path style="fill:none;stroke:#000;stroke-width:.316673px;stroke-linecap:butt;stroke-linejoin:miter;stroke-opacity:1;marker-end:url(#Arrow2Lend-4)" id="path1293-9" d="M 54.046681,66.264472 V 125.03957"/><path style="fill:none;stroke:#000;stroke-width:.316673px;stroke-linecap:butt;stroke-linejoin:miter;stroke-opacity:1;marker-end:url(#Arrow2Lend-4-1)" id="path1293-9-6" d="m 241.0584,173.24475 v 58.77529"/><text xml:space="preserve" style="font-style:normal;font-weight:400;font-size:5.64444px;line-height:1.25;font-family:sans-serif;text-align:center;letter-spacing:0;text-anchor:middle;fill:#000;fill-opacity:1;stroke:none;stroke-width:.264583" id="text873-4-3-2" x="79.277" y="97.38"><tspan x="79.277" y="97.38" style="font-style:normal;font-variant:normal;font-weight:400;font-stretch:normal;font-size:5.64444px;font-family:Roboto;-inkscape-font-specification:Roboto;text-align:center;text-anchor:middle;stroke-width:.264583" id="tspan1287-4">Send RAW events</tspan></text><text xml:space="preserve" style="font-style:normal;font-weight:400;font-size:5.64444px;line-height:1.25;font-family:sans-serif;text-align:center;letter-spacing:0;text-anchor:middle;fill:#000;fill-opacity:1;stroke:none;stroke-width:.264583" id="text873-4-3-2-4" x="253.284" y="203.05"><tspan x="253.284" y="203.05" style="font-style:normal;font-variant:normal;font-weight:400;font-stretch:normal;font-size:5.64444px;font-family:Roboto;-inkscape-font-specification:Roboto;text-align:center;text-anchor:middle;stroke-width:.264583" id="tspan1287-4-9">Control</tspan></text><text xml:space="preserve" style="font-style:normal;font-weight:400;font-size:5.64444px;line-height:1.25;font-family:sans-serif;text-align:center;letter-spacing:0;text-anchor:middle;fill:#000;fill-opacity:1;stroke:none;stroke-width:.264583" id="text873-4-3-2-9" x="55.564" y="178.772"><tspan x="55.564" y="178.772" style="font-style:normal;font-variant:normal;font-weight:400;font-stretch:normal;font-size:5.64444px;font-family:Roboto;-inkscape-font-specification:Roboto;text-align:center;text-anchor:middle;stroke-width:.264583" id="tspan1287-4-3">Handle RAW events</tspan><tspan x="55.564" y="185.934" style="font-style:normal;font-variant:normal;font-weight:400;font-stretch:normal;font-size:5.64444px;font-family:Roboto;-inkscape-font-specification:Roboto;text-align:center;text-anchor:middle;stroke-width:.264583" id="tspan2112">Implement virtual events</tspan></text><text xml:space="preserve" style="font-style:normal;font-weight:400;font-size:5.64444px;line-height:1.25;font-family:sans-serif;text-align:center;letter-spacing:0;text-anchor:middle;fill:#000;fill-opacity:1;stroke:none;stroke-width:.264583" id="text873-4-3-2-9-6" x="147.777" y="137.96"><tspan x="147.777" y="137.96" style="font-style:normal;font-variant:normal;font-weight:400;font-stretch:normal;font-size:5.64444px;font-family:Roboto;-inkscape-font-specification:Roboto;text-align:center;text-anchor:middle;stroke-width:.264583" id="tspan2112-5">Send standardized</tspan><tspan x="147.777" y="145.122" style="font-style:normal;font-variant:normal;font-weight:400;font-stretch:normal;font-size:5.64444px;font-family:Roboto;-inkscape-font-specification:Roboto;text-align:center;text-anchor:middle;stroke-width:.264583" id="tspan2168">controller events</tspan></text><text xml:space="preserve" style="font-style:normal;font-weight:400;font-size:5.64444px;line-height:1.25;font-family:sans-serif;text-align:center;letter-spacing:0;text-anchor:middle;fill:#000;fill-opacity:1;stroke:none;stroke-width:.264583" id="text873-4-3-2-9-6-0" x="240.97" y="116.462"><tspan x="240.97" y="116.462" style="font-style:normal;font-variant:normal;font-weight:400;font-stretch:normal;font-size:5.64444px;font-family:Roboto;-inkscape-font-specification:Roboto;text-align:center;text-anchor:middle;stroke-width:.264583" id="tspan2168-9">Map standard controller events</tspan><tspan x="240.97" y="123.624" style="font-style:normal;font-variant:normal;font-weight:400;font-stretch:normal;font-size:5.64444px;font-family:Roboto;-inkscape-font-specification:Roboto;text-align:center;text-anchor:middle;stroke-width:.264583" id="tspan2218">to Media Player actions</tspan></text><text xml:space="preserve" style="font-style:normal;font-weight:400;font-size:5.64444px;line-height:1.25;font-family:sans-serif;text-align:center;letter-spacing:0;text-anchor:middle;fill:#000;fill-opacity:1;stroke:none;stroke-width:.264583" id="text873-4-3-2-9-3" x="53.263" y="17.315"><tspan x="53.263" y="17.315" style="font-style:normal;font-variant:normal;font-weight:400;font-stretch:normal;font-size:5.64444px;font-family:Roboto;-inkscape-font-specification:Roboto;text-align:center;text-anchor:middle;stroke-width:.264583" id="tspan2112-1">Controller device/entity exposed</tspan><tspan x="53.263" y="24.476" style="font-style:normal;font-variant:normal;font-weight:400;font-stretch:normal;font-size:5.64444px;font-family:Roboto;-inkscape-font-specification:Roboto;text-align:center;text-anchor:middle;stroke-width:.264583" id="tspan2332">by an integration (deCONZ, ZHA, etc.)</tspan></text><text xml:space="preserve" style="font-style:normal;font-weight:400;font-size:5.64444px;line-height:1.25;font-family:sans-serif;text-align:center;letter-spacing:0;text-anchor:middle;fill:#000;fill-opacity:1;stroke:none;stroke-width:.264583" id="text873-4-3-2-9-7" x="241.07" y="280.234"><tspan x="241.07" y="280.234" style="font-style:normal;font-variant:normal;font-weight:400;font-stretch:normal;font-size:5.64444px;font-family:Roboto;-inkscape-font-specification:Roboto;text-align:center;text-anchor:middle;stroke-width:.264583" id="tspan2357">The media player entity which</tspan><tspan x="241.07" y="287.395" style="font-style:normal;font-variant:normal;font-weight:400;font-stretch:normal;font-size:5.64444px;font-family:Roboto;-inkscape-font-specification:Roboto;text-align:center;text-anchor:middle;stroke-width:.264583" id="tspan2361">will be controlled by the IKEA E1743</tspan></text></g></svg>