<svg xmlns="http://www.w3.org/2000/svg" xmlns:svg="http://www.w3.org/2000/svg" id="svg8" width="400mm" height="300mm" version="1.1" viewBox="0 0 400 300"><defs id="defs2"><marker style="overflow:visible" id="Arrow2Lstart" orient="auto" refX="0" refY="0"><path id="path1313" d="M 8.7185878,4.0337352 -2.2072895,0.01601326 8.7185884,-4.0017078 c -1.7454984,2.3720609 -1.7354408,5.6174519 -6e-7,8.035443 z" transform="matrix(1.1,0,0,1.1,1.1,0)" style="fill:#000;fill-opacity:1;fill-rule:evenodd;stroke:#000;stroke-width:.625;stroke-linejoin:round;stroke-opacity:1"/></marker><marker style="overflow:visible" id="marker3931" orient="auto" refX="0" refY="0"><path id="path3929" d="M 8.7185878,4.0337352 -2.2072895,0.01601326 8.7185884,-4.0017078 c -1.7454984,2.3720609 -1.7354408,5.6174519 -6e-7,8.035443 z" transform="matrix(-1.1,0,0,-1.1,-1.1,0)" style="fill:#000;fill-opacity:1;fill-rule:evenodd;stroke:#000;stroke-width:.625;stroke-linejoin:round;stroke-opacity:1"/></marker><marker style="overflow:visible" id="TriangleOutL" orient="auto" refX="0" refY="0"><path transform="scale(0.8)" style="fill:#000;fill-opacity:1;fill-rule:evenodd;stroke:#000;stroke-width:1pt;stroke-opacity:1" id="path1437" d="M 5.77,0 -2.88,5 V -5 Z"/></marker><marker style="overflow:visible" id="Arrow1Lend" orient="auto" refX="0" refY="0"><path transform="matrix(-0.8,0,0,-0.8,-10,0)" style="fill:#000;fill-opacity:1;fill-rule:evenodd;stroke:#000;stroke-width:1pt;stroke-opacity:1" id="path1298" d="M 0,0 5,-5 -12.5,0 5,5 Z"/></marker><marker style="overflow:visible" id="Arrow1Lstart" orient="auto" refX="0" refY="0"><path transform="matrix(0.8,0,0,0.8,10,0)" style="fill:#000;fill-opacity:1;fill-rule:evenodd;stroke:#000;stroke-width:1pt;stroke-opacity:1" id="path1295" d="M 0,0 5,-5 -12.5,0 5,5 Z"/></marker><marker style="overflow:visible" id="Arrow2Lend-4" orient="auto" refX="0" refY="0"><path id="path1316-0" d="M 8.7185878,4.0337352 -2.2072895,0.01601326 8.7185884,-4.0017078 c -1.7454984,2.3720609 -1.7354408,5.6174519 -6e-7,8.035443 z" transform="matrix(-1.1,0,0,-1.1,-1.1,0)" style="fill:#000;fill-opacity:1;fill-rule:evenodd;stroke:#000;stroke-width:.625;stroke-linejoin:round;stroke-opacity:1"/></marker><marker style="overflow:visible" id="Arrow2Lend-4-1" orient="auto" refX="0" refY="0"><path id="path1316-0-9" d="M 8.7185878,4.0337352 -2.2072895,0.01601326 8.7185884,-4.0017078 c -1.7454984,2.3720609 -1.7354408,5.6174519 -6e-7,8.035443 z" transform="matrix(-1.1,0,0,-1.1,-1.1,0)" style="fill:#000;fill-opacity:1;fill-rule:evenodd;stroke:#000;stroke-width:.625;stroke-linejoin:round;stroke-opacity:1"/></marker><marker style="overflow:visible" id="Arrow2Lend-8" orient="auto" refX="0" refY="0"><path id="path1316-04" d="M 8.7185878,4.0337352 -2.2072895,0.01601326 8.7185884,-4.0017078 c -1.7454984,2.3720609 -1.7354408,5.6174519 -6e-7,8.035443 z" transform="matrix(-1.1,0,0,-1.1,-1.1,0)" style="fill:#000;fill-opacity:1;fill-rule:evenodd;stroke:#000;stroke-width:.625;stroke-linejoin:round;stroke-opacity:1"/></marker><marker style="overflow:visible" id="Arrow2Lend-4-6" orient="auto" refX="0" refY="0"><path id="path1316-0-8" d="M 8.7185878,4.0337352 -2.2072895,0.01601326 8.7185884,-4.0017078 c -1.7454984,2.3720609 -1.7354408,5.6174519 -6e-7,8.035443 z" transform="matrix(-1.1,0,0,-1.1,-1.1,0)" style="fill:#000;fill-opacity:1;fill-rule:evenodd;stroke:#000;stroke-width:.625;stroke-linejoin:round;stroke-opacity:1"/></marker><marker style="overflow:visible" id="Arrow2Lend-4-1-9" orient="auto" refX="0" refY="0"><path id="path1316-0-9-0" d="M 8.7185878,4.0337352 -2.2072895,0.01601326 8.7185884,-4.0017078 c -1.7454984,2.3720609 -1.7354408,5.6174519 -6e-7,8.035443 z" transform="matrix(-1.1,0,0,-1.1,-1.1,0)" style="fill:#000;fill-opacity:1;fill-rule:evenodd;stroke:#000;stroke-width:.625;stroke-linejoin:round;stroke-opacity:1"/></marker></defs><metadata id="metadata5"/><g id="layer1"><rect style="fill:#faffff;fill-opacity:1;stroke:#000;stroke-width:.4;stroke-linecap:round;stroke-linejoin:round;stroke-miterlimit:4.3;stroke-dasharray:none;stroke-opacity:1" id="rect2381" width="607.786" height="551.089" x="-67.517" y="-68.175"/><rect style="fill:#b5ffba;fill-opacity:1;stroke:#000;stroke-width:.4;stroke-linecap:round;stroke-linejoin:round;stroke-miterlimit:4.3;stroke-dasharray:none;stroke-opacity:1" id="rect869" width="81.454" height="37.231" x="168.92" y="153.723" rx="8" ry="8"/><text xml:space="preserve" style="font-style:normal;font-weight:400;font-size:7.05556px;line-height:1.25;font-family:sans-serif;text-align:center;letter-spacing:0;text-anchor:middle;fill:#000;fill-opacity:1;stroke:none;stroke-width:.264583" id="text873" x="209.414" y="170.348"><tspan id="tspan871" x="209.414" y="170.348" style="font-style:normal;font-variant:normal;font-weight:400;font-stretch:normal;font-size:7.05556px;font-family:Roboto;-inkscape-font-specification:Roboto;text-align:center;text-anchor:middle;stroke-width:.264583">IKEA E1743</tspan><tspan x="209.414" y="179.3" style="font-style:normal;font-variant:normal;font-weight:400;font-stretch:normal;font-size:7.05556px;font-family:Roboto;-inkscape-font-specification:Roboto;text-align:center;text-anchor:middle;stroke-width:.264583" id="tspan1149">Controller</tspan></text><g style="fill:currentColor" id="g1099" transform="matrix(0.79309876,0,0,0.79309876,171.6793,156.15442)"><path id="path1085" d="M 10,2 A 2,2 0 0 1 8.5,3.937 V 9.024 C 9.363,9.107 10,9.401 10,9.75 10,10.164 9.105,10.5 8,10.5 6.895,10.5 6,10.164 6,9.75 6,9.4 6.637,9.107 7.5,9.024 V 3.937 A 2,2 0 1 1 10,2 Z"/><path id="path1087" d="m 0,9.665 v 1.717 a 1,1 0 0 0 0.553,0.894 l 6.553,3.277 a 2,2 0 0 0 1.788,0 l 6.553,-3.277 A 1,1 0 0 0 16,11.382 V 9.665 c 0,-0.1 -0.06,-0.19 -0.152,-0.23 L 9.5,6.715 v 0.993 l 5.227,2.178 a 0.125,0.125 0 0 1 10e-4,0.23 l -5.94,2.546 a 2,2 0 0 1 -1.576,0 L 1.272,10.116 A 0.125,0.125 0 0 1 1.273,9.886 L 6.5,7.708 6.487,6.72 0.152,9.435 A 0.25,0.25 0 0 0 0,9.665 Z"/></g><rect style="fill:#ffffe6;fill-opacity:1;stroke:#000;stroke-width:.475649;stroke-linecap:round;stroke-linejoin:round;stroke-miterlimit:4.3;stroke-dasharray:none;stroke-opacity:1" id="rect1220" width="76.202" height="29.352" x="169.183" y="52.775"/><text xml:space="preserve" style="font-style:normal;font-weight:400;font-size:7.05556px;line-height:1.25;font-family:sans-serif;text-align:center;letter-spacing:0;text-anchor:middle;fill:#000;fill-opacity:1;stroke:none;stroke-width:.264583" id="text873-4-3" x="207.034" y="64.742"><tspan x="207.034" y="64.742" style="font-style:normal;font-variant:normal;font-weight:400;font-stretch:normal;font-size:7.05556px;font-family:Roboto;-inkscape-font-specification:Roboto;text-align:center;text-anchor:middle;stroke-width:.264583" id="tspan1157-0">IKEA E1743</tspan><tspan x="207.034" y="73.694" style="font-style:normal;font-variant:normal;font-weight:400;font-stretch:normal;font-size:7.05556px;font-family:Roboto;-inkscape-font-specification:Roboto;text-align:center;text-anchor:middle;stroke-width:.264583" id="tspan1287">Device / Entity</tspan></text><path style="fill:none;stroke:#000;stroke-width:.316673px;stroke-linecap:butt;stroke-linejoin:miter;stroke-opacity:1;marker-end:url(#Arrow2Lend-4)" id="path1293-9" d="M 208.07484,87.866609 V 146.6419"/><text xml:space="preserve" style="font-style:normal;font-weight:400;font-size:5.64444px;line-height:1.25;font-family:sans-serif;text-align:center;letter-spacing:0;text-anchor:middle;fill:#000;fill-opacity:1;stroke:none;stroke-width:.264583" id="text873-4-3-2" x="233.304" y="118.981"><tspan x="233.304" y="118.981" style="font-style:normal;font-variant:normal;font-weight:400;font-stretch:normal;font-size:5.64444px;font-family:Roboto;-inkscape-font-specification:Roboto;text-align:center;text-anchor:middle;stroke-width:.264583" id="tspan1287-4">Send RAW events</tspan></text><text xml:space="preserve" style="font-style:normal;font-weight:400;font-size:5.64444px;line-height:0;font-family:sans-serif;text-align:end;letter-spacing:0;text-anchor:end;fill:#000;fill-opacity:1;stroke:none;stroke-width:.264583" id="text873-4-3-2-9" x="163.801" y="167.111"><tspan x="163.801" y="167.111" style="font-style:normal;font-variant:normal;font-weight:400;font-stretch:normal;font-size:5.64444px;line-height:1.25;font-family:Roboto;-inkscape-font-specification:Roboto;text-align:end;text-anchor:end;stroke-width:.264583" id="tspan1287-4-3">Handle RAW events</tspan><tspan x="163.801" y="174.167" style="font-style:normal;font-variant:normal;font-weight:400;font-stretch:normal;font-size:5.64444px;line-height:1.25;font-family:Roboto;-inkscape-font-specification:Roboto;text-align:end;text-anchor:end;stroke-width:.264583" id="tspan2112">Implement virtual events</tspan><tspan style="font-style:normal;font-variant:normal;font-weight:700;font-stretch:normal;font-size:5.64444px;line-height:1.25;font-family:Roboto;-inkscape-font-specification:'Roboto Bold';text-align:end;text-anchor:end;stroke-width:.264583" id="tspan4502" x="163.801" y="181.222">Execute the provided custom actions</tspan></text><text xml:space="preserve" style="font-style:normal;font-weight:400;font-size:5.64444px;line-height:1.25;font-family:sans-serif;text-align:center;letter-spacing:0;text-anchor:middle;fill:#000;fill-opacity:1;stroke:none;stroke-width:.264583" id="text873-4-3-2-9-3" x="207.291" y="38.917"><tspan x="207.291" y="38.917" style="font-style:normal;font-variant:normal;font-weight:400;font-stretch:normal;font-size:5.64444px;font-family:Roboto;-inkscape-font-specification:Roboto;text-align:center;text-anchor:middle;stroke-width:.264583" id="tspan2112-1">Controller device/entity exposed</tspan><tspan x="207.291" y="46.078" style="font-style:normal;font-variant:normal;font-weight:400;font-stretch:normal;font-size:5.64444px;font-family:Roboto;-inkscape-font-specification:Roboto;text-align:center;text-anchor:middle;stroke-width:.264583" id="tspan2332">by an integration (deCONZ, ZHA, etc.)</tspan></text><rect style="fill:#fff0ff;fill-opacity:1;stroke:#000;stroke-width:.475649;stroke-linecap:round;stroke-linejoin:round;stroke-miterlimit:4.3;stroke-dasharray:none;stroke-opacity:1" id="rect1220-0" width="76.202" height="29.352" x="171.546" y="231.443"/><text xml:space="preserve" style="font-style:normal;font-weight:400;font-size:7.05556px;line-height:1.25;font-family:sans-serif;text-align:center;letter-spacing:0;text-anchor:middle;fill:#000;fill-opacity:1;stroke:none;stroke-width:.264583" id="text873-4-3-6" x="209.616" y="243.864"><tspan x="209.616" y="243.864" style="font-style:normal;font-variant:normal;font-weight:700;font-stretch:normal;font-size:7.05556px;font-family:Roboto;-inkscape-font-specification:'Roboto Bold';text-align:center;text-anchor:middle;stroke-width:.264583" id="tspan1287-7">Input:</tspan><tspan x="209.616" y="252.816" style="font-style:normal;font-variant:normal;font-weight:700;font-stretch:normal;font-size:7.05556px;font-family:Roboto;-inkscape-font-specification:'Roboto Bold';text-align:center;text-anchor:middle;stroke-width:.264583" id="tspan4256">Custom Actions</tspan></text><path style="fill:none;stroke:#000;stroke-width:.317;stroke-linecap:butt;stroke-linejoin:miter;stroke-miterlimit:4;stroke-dasharray:none;stroke-opacity:1;marker-start:url(#Arrow2Lstart)" id="path1293-9-6-3" d="m 209.45243,194.28012 v 33.1674"/></g></svg>