<svg xmlns="http://www.w3.org/2000/svg" xmlns:svg="http://www.w3.org/2000/svg" id="svg8" width="400mm" height="300mm" version="1.1" viewBox="0 0 400 300"><defs id="defs2"><marker style="overflow:visible" id="Arrow2Lstart" orient="auto" refX="0" refY="0"><path id="path1313" d="M 8.7185878,4.0337352 -2.2072895,0.01601326 8.7185884,-4.0017078 c -1.7454984,2.3720609 -1.7354408,5.6174519 -6e-7,8.035443 z" transform="matrix(1.1,0,0,1.1,1.1,0)" style="fill:#000;fill-opacity:1;fill-rule:evenodd;stroke:#000;stroke-width:.625;stroke-linejoin:round;stroke-opacity:1"/></marker><marker style="overflow:visible" id="marker3931" orient="auto" refX="0" refY="0"><path id="path3929" d="M 8.7185878,4.0337352 -2.2072895,0.01601326 8.7185884,-4.0017078 c -1.7454984,2.3720609 -1.7354408,5.6174519 -6e-7,8.035443 z" transform="matrix(-1.1,0,0,-1.1,-1.1,0)" style="fill:#000;fill-opacity:1;fill-rule:evenodd;stroke:#000;stroke-width:.625;stroke-linejoin:round;stroke-opacity:1"/></marker><marker style="overflow:visible" id="TriangleOutL" orient="auto" refX="0" refY="0"><path transform="scale(0.8)" style="fill:#000;fill-opacity:1;fill-rule:evenodd;stroke:#000;stroke-width:1pt;stroke-opacity:1" id="path1437" d="M 5.77,0 -2.88,5 V -5 Z"/></marker><marker style="overflow:visible" id="Arrow2Lend" orient="auto" refX="0" refY="0"><path id="path1316" d="M 8.7185878,4.0337352 -2.2072895,0.01601326 8.7185884,-4.0017078 c -1.7454984,2.3720609 -1.7354408,5.6174519 -6e-7,8.035443 z" transform="matrix(-1.1,0,0,-1.1,-1.1,0)" style="fill:#000;fill-opacity:1;fill-rule:evenodd;stroke:#000;stroke-width:.625;stroke-linejoin:round;stroke-opacity:1"/></marker><marker style="overflow:visible" id="Arrow1Lend" orient="auto" refX="0" refY="0"><path transform="matrix(-0.8,0,0,-0.8,-10,0)" style="fill:#000;fill-opacity:1;fill-rule:evenodd;stroke:#000;stroke-width:1pt;stroke-opacity:1" id="path1298" d="M 0,0 5,-5 -12.5,0 5,5 Z"/></marker><marker style="overflow:visible" id="Arrow1Lstart" orient="auto" refX="0" refY="0"><path transform="matrix(0.8,0,0,0.8,10,0)" style="fill:#000;fill-opacity:1;fill-rule:evenodd;stroke:#000;stroke-width:1pt;stroke-opacity:1" id="path1295" d="M 0,0 5,-5 -12.5,0 5,5 Z"/></marker><marker style="overflow:visible" id="Arrow2Lend-4" orient="auto" refX="0" refY="0"><path id="path1316-0" d="M 8.7185878,4.0337352 -2.2072895,0.01601326 8.7185884,-4.0017078 c -1.7454984,2.3720609 -1.7354408,5.6174519 -6e-7,8.035443 z" transform="matrix(-1.1,0,0,-1.1,-1.1,0)" style="fill:#000;fill-opacity:1;fill-rule:evenodd;stroke:#000;stroke-width:.625;stroke-linejoin:round;stroke-opacity:1"/></marker><marker style="overflow:visible" id="Arrow2Lend-4-1" orient="auto" refX="0" refY="0"><path id="path1316-0-9" d="M 8.7185878,4.0337352 -2.2072895,0.01601326 8.7185884,-4.0017078 c -1.7454984,2.3720609 -1.7354408,5.6174519 -6e-7,8.035443 z" transform="matrix(-1.1,0,0,-1.1,-1.1,0)" style="fill:#000;fill-opacity:1;fill-rule:evenodd;stroke:#000;stroke-width:.625;stroke-linejoin:round;stroke-opacity:1"/></marker><marker style="overflow:visible" id="Arrow2Lend-8" orient="auto" refX="0" refY="0"><path id="path1316-04" d="M 8.7185878,4.0337352 -2.2072895,0.01601326 8.7185884,-4.0017078 c -1.7454984,2.3720609 -1.7354408,5.6174519 -6e-7,8.035443 z" transform="matrix(-1.1,0,0,-1.1,-1.1,0)" style="fill:#000;fill-opacity:1;fill-rule:evenodd;stroke:#000;stroke-width:.625;stroke-linejoin:round;stroke-opacity:1"/></marker><marker style="overflow:visible" id="Arrow2Lend-4-6" orient="auto" refX="0" refY="0"><path id="path1316-0-8" d="M 8.7185878,4.0337352 -2.2072895,0.01601326 8.7185884,-4.0017078 c -1.7454984,2.3720609 -1.7354408,5.6174519 -6e-7,8.035443 z" transform="matrix(-1.1,0,0,-1.1,-1.1,0)" style="fill:#000;fill-opacity:1;fill-rule:evenodd;stroke:#000;stroke-width:.625;stroke-linejoin:round;stroke-opacity:1"/></marker><marker style="overflow:visible" id="Arrow2Lend-4-1-9" orient="auto" refX="0" refY="0"><path id="path1316-0-9-0" d="M 8.7185878,4.0337352 -2.2072895,0.01601326 8.7185884,-4.0017078 c -1.7454984,2.3720609 -1.7354408,5.6174519 -6e-7,8.035443 z" transform="matrix(-1.1,0,0,-1.1,-1.1,0)" style="fill:#000;fill-opacity:1;fill-rule:evenodd;stroke:#000;stroke-width:.625;stroke-linejoin:round;stroke-opacity:1"/></marker></defs><metadata id="metadata5"/><g id="layer1"><rect style="fill:#faffff;fill-opacity:1;stroke:#000;stroke-width:.4;stroke-linecap:round;stroke-linejoin:round;stroke-miterlimit:4.3;stroke-dasharray:none;stroke-opacity:1" id="rect2381" width="607.786" height="551.089" x="-112.418" y="-122.698"/><rect style="fill:#ffffe6;fill-opacity:1;stroke:#000;stroke-width:.475649;stroke-linecap:round;stroke-linejoin:round;stroke-miterlimit:4.3;stroke-dasharray:none;stroke-opacity:1" id="rect1220-4" width="76.202" height="29.352" x="296.054" y="239.004"/><rect style="fill:#b5ffba;fill-opacity:1;stroke:#000;stroke-width:.4;stroke-linecap:round;stroke-linejoin:round;stroke-miterlimit:4.3;stroke-dasharray:none;stroke-opacity:1" id="rect869" width="81.454" height="37.231" x="107.983" y="130.744" rx="8" ry="8"/><text xml:space="preserve" style="font-style:normal;font-weight:400;font-size:7.05556px;line-height:1.25;font-family:sans-serif;text-align:center;letter-spacing:0;text-anchor:middle;fill:#000;fill-opacity:1;stroke:none;stroke-width:.264583" id="text873" x="148.477" y="147.369"><tspan id="tspan871" x="148.477" y="147.369" style="font-style:normal;font-variant:normal;font-weight:400;font-stretch:normal;font-size:7.05556px;font-family:Roboto;-inkscape-font-specification:Roboto;text-align:center;text-anchor:middle;stroke-width:.264583">IKEA E1743</tspan><tspan x="148.477" y="156.32" style="font-style:normal;font-variant:normal;font-weight:400;font-stretch:normal;font-size:7.05556px;font-family:Roboto;-inkscape-font-specification:Roboto;text-align:center;text-anchor:middle;stroke-width:.264583" id="tspan1149">Controller</tspan></text><g style="fill:currentColor" id="g1099" transform="matrix(0.79309876,0,0,0.79309876,110.74185,133.17461)"><path id="path1085" d="M 10,2 A 2,2 0 0 1 8.5,3.937 V 9.024 C 9.363,9.107 10,9.401 10,9.75 10,10.164 9.105,10.5 8,10.5 6.895,10.5 6,10.164 6,9.75 6,9.4 6.637,9.107 7.5,9.024 V 3.937 A 2,2 0 1 1 10,2 Z"/><path id="path1087" d="m 0,9.665 v 1.717 a 1,1 0 0 0 0.553,0.894 l 6.553,3.277 a 2,2 0 0 0 1.788,0 l 6.553,-3.277 A 1,1 0 0 0 16,11.382 V 9.665 c 0,-0.1 -0.06,-0.19 -0.152,-0.23 L 9.5,6.715 v 0.993 l 5.227,2.178 a 0.125,0.125 0 0 1 10e-4,0.23 l -5.94,2.546 a 2,2 0 0 1 -1.576,0 L 1.272,10.116 A 0.125,0.125 0 0 1 1.273,9.886 L 6.5,7.708 6.487,6.72 0.152,9.435 A 0.25,0.25 0 0 0 0,9.665 Z"/></g><rect style="fill:#c9f3ff;fill-opacity:1;stroke:#000;stroke-width:.4;stroke-linecap:round;stroke-linejoin:round;stroke-miterlimit:4.3;stroke-dasharray:none;stroke-opacity:1" id="rect869-0" width="81.454" height="37.231" x="293.428" y="130.744" rx="8" ry="8"/><text xml:space="preserve" style="font-style:normal;font-weight:400;font-size:7.05556px;line-height:1.25;font-family:sans-serif;text-align:center;letter-spacing:0;text-anchor:middle;fill:#000;fill-opacity:1;stroke:none;stroke-width:.264583" id="text873-4" x="333.914" y="147.494"><tspan x="333.914" y="147.494" style="font-style:normal;font-variant:normal;font-weight:400;font-stretch:normal;font-size:7.05556px;font-family:Roboto;-inkscape-font-specification:Roboto;text-align:center;text-anchor:middle;stroke-width:.264583" id="tspan1101-2">Media Player</tspan><tspan x="333.914" y="156.446" style="font-style:normal;font-variant:normal;font-weight:400;font-stretch:normal;font-size:7.05556px;font-family:Roboto;-inkscape-font-specification:Roboto;text-align:center;text-anchor:middle;stroke-width:.264583" id="tspan1157">Hook</tspan></text><g style="fill:currentColor" id="g1216" transform="matrix(0.94110932,0,0,0.94110932,296.34615,132.69322)"><path id="path1205" d="M 6,0 A 0.5,0.5 0 0 1 6.5,0.5 V 3 h 3 V 0.5 a 0.5,0.5 0 0 1 1,0 V 3 h 1 A 0.5,0.5 0 0 1 12,3.5 v 3 A 3.5,3.5 0 0 1 8.5,10 c -0.002,0.434 -0.01,0.845 -0.04,1.22 -0.041,0.514 -0.126,1.003 -0.317,1.424 a 2.083,2.083 0 0 1 -0.97,1.028 C 6.725,13.9 6.169,14 5.5,14 4.502,14 3.89,14.33 3.526,14.718 A 1.922,1.922 0 0 0 3,16 H 2 C 2,15.384 2.232,14.633 2.797,14.032 3.374,13.42 4.261,13 5.5,13 c 0.581,0 0.962,-0.088 1.218,-0.219 0.241,-0.123 0.4,-0.3 0.514,-0.55 0.121,-0.266 0.193,-0.621 0.23,-1.09 C 7.489,10.801 7.497,10.423 7.499,10 A 3.5,3.5 0 0 1 4,6.5 v -3 A 0.5,0.5 0 0 1 4.5,3 h 1 V 0.5 A 0.5,0.5 0 0 1 6,0 Z"/></g><rect style="fill:#ffffe6;fill-opacity:1;stroke:#000;stroke-width:.475649;stroke-linecap:round;stroke-linejoin:round;stroke-miterlimit:4.3;stroke-dasharray:none;stroke-opacity:1" id="rect1220" width="76.202" height="29.352" x="108.245" y="29.795"/><text xml:space="preserve" style="font-style:normal;font-weight:400;font-size:7.05556px;line-height:1.25;font-family:sans-serif;text-align:center;letter-spacing:0;text-anchor:middle;fill:#000;fill-opacity:1;stroke:none;stroke-width:.264583" id="text873-4-0" x="333.914" y="251.097"><tspan x="333.914" y="251.097" style="font-style:normal;font-variant:normal;font-weight:400;font-stretch:normal;font-size:7.05556px;font-family:Roboto;-inkscape-font-specification:Roboto;text-align:center;text-anchor:middle;stroke-width:.264583" id="tspan1101-2-2">Media Player</tspan><tspan x="333.914" y="260.049" style="font-style:normal;font-variant:normal;font-weight:400;font-stretch:normal;font-size:7.05556px;font-family:Roboto;-inkscape-font-specification:Roboto;text-align:center;text-anchor:middle;stroke-width:.264583" id="tspan1157-8">Entity</tspan></text><text xml:space="preserve" style="font-style:normal;font-weight:400;font-size:7.05556px;line-height:1.25;font-family:sans-serif;text-align:center;letter-spacing:0;text-anchor:middle;fill:#000;fill-opacity:1;stroke:none;stroke-width:.264583" id="text873-4-3" x="146.096" y="41.763"><tspan x="146.096" y="41.763" style="font-style:normal;font-variant:normal;font-weight:400;font-stretch:normal;font-size:7.05556px;font-family:Roboto;-inkscape-font-specification:Roboto;text-align:center;text-anchor:middle;stroke-width:.264583" id="tspan1157-0">IKEA E1743</tspan><tspan x="146.096" y="50.714" style="font-style:normal;font-variant:normal;font-weight:400;font-stretch:normal;font-size:7.05556px;font-family:Roboto;-inkscape-font-specification:Roboto;text-align:center;text-anchor:middle;stroke-width:.264583" id="tspan1287">Device / Entity</tspan></text><path style="fill:none;stroke:#000;stroke-width:.316673px;stroke-linecap:butt;stroke-linejoin:miter;stroke-opacity:1;marker-end:url(#Arrow2Lend)" id="path1293" d="M 193.45939,149.36448 H 287.5564"/><path style="fill:none;stroke:#000;stroke-width:.316673px;stroke-linecap:butt;stroke-linejoin:miter;stroke-opacity:1;marker-end:url(#Arrow2Lend-4)" id="path1293-9" d="M 147.13739,64.886803 V 123.66209"/><path style="fill:none;stroke:#000;stroke-width:.316673px;stroke-linecap:butt;stroke-linejoin:miter;stroke-opacity:1;marker-end:url(#Arrow2Lend-4-1)" id="path1293-9-6" d="m 334.14937,171.86727 v 58.77529"/><text xml:space="preserve" style="font-style:normal;font-weight:400;font-size:5.64444px;line-height:1.25;font-family:sans-serif;text-align:center;letter-spacing:0;text-anchor:middle;fill:#000;fill-opacity:1;stroke:none;stroke-width:.264583" id="text873-4-3-2" x="172.367" y="96.002"><tspan x="172.367" y="96.002" style="font-style:normal;font-variant:normal;font-weight:400;font-stretch:normal;font-size:5.64444px;font-family:Roboto;-inkscape-font-specification:Roboto;text-align:center;text-anchor:middle;stroke-width:.264583" id="tspan1287-4">Send RAW events</tspan></text><text xml:space="preserve" style="font-style:normal;font-weight:400;font-size:5.64444px;line-height:1.25;font-family:sans-serif;text-align:center;letter-spacing:0;text-anchor:middle;fill:#000;fill-opacity:1;stroke:none;stroke-width:.264583" id="text873-4-3-2-4" x="346.376" y="201.672"><tspan x="346.376" y="201.672" style="font-style:normal;font-variant:normal;font-weight:400;font-stretch:normal;font-size:5.64444px;font-family:Roboto;-inkscape-font-specification:Roboto;text-align:center;text-anchor:middle;stroke-width:.264583" id="tspan1287-4-9">Control</tspan></text><text xml:space="preserve" style="font-style:normal;font-weight:400;font-size:5.64444px;line-height:0;font-family:sans-serif;text-align:end;letter-spacing:0;text-anchor:end;fill:#000;fill-opacity:1;stroke:none;stroke-width:.264583" id="text873-4-3-2-9" x="102.864" y="144.131"><tspan x="102.864" y="144.131" style="font-style:normal;font-variant:normal;font-weight:400;font-stretch:normal;font-size:5.64444px;line-height:1.25;font-family:Roboto;-inkscape-font-specification:Roboto;text-align:end;text-anchor:end;stroke-width:.264583" id="tspan1287-4-3">Handle RAW events</tspan><tspan x="102.864" y="151.187" style="font-style:normal;font-variant:normal;font-weight:400;font-stretch:normal;font-size:5.64444px;line-height:1.25;font-family:Roboto;-inkscape-font-specification:Roboto;text-align:end;text-anchor:end;stroke-width:.264583" id="tspan2112">Implement virtual events</tspan><tspan style="font-style:normal;font-variant:normal;font-weight:700;font-stretch:normal;font-size:5.64444px;line-height:1.25;font-family:Roboto;-inkscape-font-specification:'Roboto Bold';text-align:end;text-anchor:end;stroke-width:.264583" id="tspan4502" x="102.864" y="158.243">Execute the provided custom actions</tspan></text><text xml:space="preserve" style="font-style:normal;font-weight:400;font-size:5.64444px;line-height:1.25;font-family:sans-serif;text-align:center;letter-spacing:0;text-anchor:middle;fill:#000;fill-opacity:1;stroke:none;stroke-width:.264583" id="text873-4-3-2-9-6" x="240.866" y="136.581"><tspan x="240.866" y="136.581" style="font-style:normal;font-variant:normal;font-weight:400;font-stretch:normal;font-size:5.64444px;font-family:Roboto;-inkscape-font-specification:Roboto;text-align:center;text-anchor:middle;stroke-width:.264583" id="tspan2112-5">Send standardized</tspan><tspan x="240.866" y="143.742" style="font-style:normal;font-variant:normal;font-weight:400;font-stretch:normal;font-size:5.64444px;font-family:Roboto;-inkscape-font-specification:Roboto;text-align:center;text-anchor:middle;stroke-width:.264583" id="tspan2168">controller events</tspan></text><text xml:space="preserve" style="font-style:normal;font-weight:400;font-size:5.64444px;line-height:1.25;font-family:sans-serif;text-align:center;letter-spacing:0;text-anchor:middle;fill:#000;fill-opacity:1;stroke:none;stroke-width:.264583" id="text873-4-3-2-9-6-0" x="334.061" y="115.083"><tspan x="334.061" y="115.083" style="font-style:normal;font-variant:normal;font-weight:400;font-stretch:normal;font-size:5.64444px;font-family:Roboto;-inkscape-font-specification:Roboto;text-align:center;text-anchor:middle;stroke-width:.264583" id="tspan2168-9">Map standard controller events</tspan><tspan x="334.061" y="122.245" style="font-style:normal;font-variant:normal;font-weight:400;font-stretch:normal;font-size:5.64444px;font-family:Roboto;-inkscape-font-specification:Roboto;text-align:center;text-anchor:middle;stroke-width:.264583" id="tspan2218">to Media Player actions</tspan></text><text xml:space="preserve" style="font-style:normal;font-weight:400;font-size:5.64444px;line-height:1.25;font-family:sans-serif;text-align:center;letter-spacing:0;text-anchor:middle;fill:#000;fill-opacity:1;stroke:none;stroke-width:.264583" id="text873-4-3-2-9-3" x="146.353" y="15.937"><tspan x="146.353" y="15.937" style="font-style:normal;font-variant:normal;font-weight:400;font-stretch:normal;font-size:5.64444px;font-family:Roboto;-inkscape-font-specification:Roboto;text-align:center;text-anchor:middle;stroke-width:.264583" id="tspan2112-1">Controller device/entity exposed</tspan><tspan x="146.353" y="23.098" style="font-style:normal;font-variant:normal;font-weight:400;font-stretch:normal;font-size:5.64444px;font-family:Roboto;-inkscape-font-specification:Roboto;text-align:center;text-anchor:middle;stroke-width:.264583" id="tspan2332">by an integration (deCONZ, ZHA, etc.)</tspan></text><text xml:space="preserve" style="font-style:normal;font-weight:400;font-size:5.64444px;line-height:1.25;font-family:sans-serif;text-align:center;letter-spacing:0;text-anchor:middle;fill:#000;fill-opacity:1;stroke:none;stroke-width:.264583" id="text873-4-3-2-9-7" x="334.162" y="278.857"><tspan x="334.162" y="278.857" style="font-style:normal;font-variant:normal;font-weight:400;font-stretch:normal;font-size:5.64444px;font-family:Roboto;-inkscape-font-specification:Roboto;text-align:center;text-anchor:middle;stroke-width:.264583" id="tspan2357">The media player entity which</tspan><tspan x="334.162" y="286.019" style="font-style:normal;font-variant:normal;font-weight:400;font-stretch:normal;font-size:5.64444px;font-family:Roboto;-inkscape-font-specification:Roboto;text-align:center;text-anchor:middle;stroke-width:.264583" id="tspan2361">will be controlled by the IKEA E1743</tspan></text><rect style="fill:#fff0ff;fill-opacity:1;stroke:#000;stroke-width:.475649;stroke-linecap:round;stroke-linejoin:round;stroke-miterlimit:4.3;stroke-dasharray:none;stroke-opacity:1" id="rect1220-0" width="76.202" height="29.352" x="110.608" y="208.463"/><text xml:space="preserve" style="font-style:normal;font-weight:400;font-size:7.05556px;line-height:1.25;font-family:sans-serif;text-align:center;letter-spacing:0;text-anchor:middle;fill:#000;fill-opacity:1;stroke:none;stroke-width:.264583" id="text873-4-3-6" x="148.679" y="220.884"><tspan x="148.679" y="220.884" style="font-style:normal;font-variant:normal;font-weight:700;font-stretch:normal;font-size:7.05556px;font-family:Roboto;-inkscape-font-specification:'Roboto Bold';text-align:center;text-anchor:middle;stroke-width:.264583" id="tspan1287-7">Input:</tspan><tspan x="148.679" y="229.836" style="font-style:normal;font-variant:normal;font-weight:700;font-stretch:normal;font-size:7.05556px;font-family:Roboto;-inkscape-font-specification:'Roboto Bold';text-align:center;text-anchor:middle;stroke-width:.264583" id="tspan4256">Custom Actions</tspan></text><path style="fill:none;stroke:#000;stroke-width:.317;stroke-linecap:butt;stroke-linejoin:miter;stroke-miterlimit:4;stroke-dasharray:none;stroke-opacity:1;marker-start:url(#Arrow2Lstart)" id="path1293-9-6-3" d="m 148.51498,171.30031 v 33.1674"/></g></svg>